<?xml version="1.0" encoding="UTF-8" standalone="no"?>
<!-- Created with Inkscape (http://www.inkscape.org/) -->

<svg
   width="120.39532mm"
   height="90.485596mm"
   viewBox="0 0 120.39532 90.485597"
   version="1.1"
   id="svg1"
   xml:space="preserve"
   inkscape:version="1.3.2 (091e20e, 2023-11-25, custom)"
   sodipodi:docname="gtva.svg"
   xmlns:inkscape="http://www.inkscape.org/namespaces/inkscape"
   xmlns:sodipodi="http://sodipodi.sourceforge.net/DTD/sodipodi-0.dtd"
   xmlns="http://www.w3.org/2000/svg"
   xmlns:svg="http://www.w3.org/2000/svg"><sodipodi:namedview
     id="namedview1"
     pagecolor="#ffffff"
     bordercolor="#666666"
     borderopacity="1.0"
     inkscape:showpageshadow="2"
     inkscape:pageopacity="0.0"
     inkscape:pagecheckerboard="0"
     inkscape:deskcolor="#d1d1d1"
     inkscape:document-units="mm"
     showguides="true"
     inkscape:zoom="1.4142136"
     inkscape:cx="336.93637"
     inkscape:cy="87.327685"
     inkscape:window-width="1366"
     inkscape:window-height="697"
     inkscape:window-x="-8"
     inkscape:window-y="-8"
     inkscape:window-maximized="1"
     inkscape:current-layer="layer1" /><defs
     id="defs1" /><g
     inkscape:label="Layer 1"
     inkscape:groupmode="layer"
     id="layer1"
     transform="translate(-45.059728,-103.37657)"><g
       id="g18"
       transform="matrix(2.0762225,0,0,2.0762225,-113.28037,-159.94751)"
       style="stroke-width:0.481644"><g
         id="g11"
         style="stroke-width:0.481644"><path
           d="m 90.805298,126.82845 c -8.031324,1.1e-4 -14.541919,6.51094 -14.541748,14.54227 1.14e-4,8.03112 6.510626,14.54163 14.541748,14.54174 2.798303,-0.007 5.535168,-0.82128 7.882207,-2.34507 4.144625,-2.67313 6.651925,-7.26479 6.660055,-12.19667 -0.001,-0.82329 -0.0729,-1.64498 -0.21342,-2.45618 H 89.961939 v 6.85177 h 7.510653 c -1.477254,2.24238 -3.982053,3.59282 -6.667294,3.59462 -4.412799,-1.5e-4 -7.990059,-3.57741 -7.99021,-7.99021 -1.34e-4,-4.41301 3.577209,-7.99058 7.99021,-7.99073 2.381887,0.002 4.638913,1.06564 6.155697,2.90215 l 4.668445,-4.62091 c -2.757904,-3.07512 -6.693474,-4.83228 -10.824142,-4.83278 z"
           style="fill:#ff0000;fill-opacity:1;stroke:none;stroke-width:0.0481644;stroke-linecap:square;paint-order:markers stroke fill"
           id="path7" /><path
           d="m 105.13414,138.91454 c 0.14054,0.8112 0.21194,1.63289 0.21342,2.45618 -0.008,4.93187 -2.51544,9.52354 -6.660055,12.19667 v 16.8429 h 0.03307 6.818705 v -10.28723 -14.35675 h 9.51622 6.85178 8.00106 l 4.34289,-6.85177 h -7.80211 -6.85178 z"
           style="fill:#fff000;fill-opacity:1;stroke:none;stroke-width:0.0481644;stroke-linecap:square;paint-order:markers stroke fill"
           id="path11" /><path
           id="path10"
           style="fill:#22b14c;fill-opacity:1;stroke:none;stroke-width:0.0481644;stroke-linecap:square;paint-order:markers stroke fill"
           d="m 127.36069,127.20207 -7.76335,11.71247 h 6.85178 l 7.76335,-11.71247 z m -12.30519,18.56424 -9.51622,14.35675 v 10.28723 h 0.0331 l 16.33492,-24.64398 z" /></g><path
         d="m 110.14085,127.20171 -1.26327,3.84199 -3.72318,-5.5e-4 2.99764,2.20785 -1.21854,3.70639 3.17966,-2.26152 3.07039,2.26171 -1.13459,-3.63785 3.19986,-2.27658 -3.90834,0.005 z"
         style="fill:#000000;stroke:none;stroke-width:0.0313068"
         id="path14"
         sodipodi:nodetypes="ccccccccccc" /></g></g></svg>
